<?xml version="1.0" encoding="iso-8859-1"?>
<!-- Generator: Adobe Illustrator 17.1.0, SVG Export Plug-In . SVG Version: 6.00 Build 0)  -->
<!DOCTYPE svg PUBLIC "-//W3C//DTD SVG 1.1//EN" "http://www.w3.org/Graphics/SVG/1.1/DTD/svg11.dtd">
<svg version="1.1" id="Capa_1" xmlns="http://www.w3.org/2000/svg" xmlns:xlink="http://www.w3.org/1999/xlink" x="0px" y="0px"
	 viewBox="0 0 294 294" style="enable-background:new 0 0 294 294;" xml:space="preserve">
<path d="M184.945,109.056C174.81,98.92,161.334,93.338,147,93.338c-14.333,0-27.809,5.582-37.944,15.718
	c-20.923,20.923-20.923,54.966,0,75.889c10.136,10.136,23.611,15.718,37.944,15.718c14.334,0,27.81-5.582,37.944-15.718
	C205.867,164.021,205.867,129.979,184.945,109.056z M163.73,163.731c-4.468,4.469-10.41,6.931-16.73,6.931
	s-12.262-2.462-16.731-6.931c-9.226-9.226-9.226-24.237,0-33.463c4.47-4.469,10.411-6.931,16.731-6.931s12.263,2.462,16.731,6.931
	C172.957,139.494,172.957,154.506,163.73,163.731z M261.017,239.804C282.382,213.655,294,181.222,294,147
	s-11.618-66.655-32.983-92.804l21.04-21.04c5.858-5.857,5.858-15.355,0-21.213c-5.857-5.857-15.355-5.857-21.213,0l-21.041,21.04
	C213.655,11.619,181.221,0,147,0c-34.222,0-66.655,11.618-92.804,32.983l-21.04-21.041c-5.857-5.858-15.355-5.858-21.213,0
	c-5.858,5.857-5.858,15.355,0,21.213l21.04,21.04C11.619,80.345,0,112.778,0,147s11.619,66.655,32.983,92.804l-21.04,21.04
	c-5.858,5.857-5.858,15.355,0,21.213c2.929,2.929,6.768,4.394,10.606,4.394s7.678-1.465,10.606-4.394l21.04-21.041
	C80.345,282.382,112.778,294,147,294c34.221,0,66.655-11.619,92.804-32.983l21.041,21.04c2.929,2.929,6.768,4.394,10.606,4.394
	s7.678-1.465,10.606-4.394c5.858-5.857,5.858-15.355,0-21.213L261.017,239.804z M147,264c-26.195,0-51.073-8.555-71.452-24.335
	l19.833-19.833c5.858-5.857,5.858-15.355,0-21.213c-5.857-5.857-15.355-5.857-21.213,0l-19.833,19.833
	C38.555,198.073,30,173.195,30,147s8.555-51.073,24.335-71.452l19.833,19.833c2.929,2.93,6.768,4.394,10.606,4.394
	s7.678-1.465,10.606-4.394c5.858-5.857,5.858-15.355,0-21.213L75.548,54.335C95.927,38.555,120.805,30,147,30
	c26.195,0,51.073,8.554,71.453,24.335l-19.833,19.833c-5.858,5.857-5.858,15.355,0,21.213c2.929,2.929,6.768,4.394,10.606,4.394
	s7.678-1.465,10.606-4.394l19.833-19.833C255.445,95.927,264,120.805,264,147s-8.555,51.073-24.335,71.453l-19.833-19.833
	c-5.857-5.857-15.355-5.857-21.213,0c-5.858,5.857-5.858,15.355,0,21.213l19.833,19.833C198.073,255.446,173.195,264,147,264z"/>
<g>
</g>
<g>
</g>
<g>
</g>
<g>
</g>
<g>
</g>
<g>
</g>
<g>
</g>
<g>
</g>
<g>
</g>
<g>
</g>
<g>
</g>
<g>
</g>
<g>
</g>
<g>
</g>
<g>
</g>
</svg>
